<svg width="960" height="1200" viewBox="0 0 960 1200" fill="none" xmlns="http://www.w3.org/2000/svg">
  <rect width="960" height="1200" rx="60" fill="#F7F2EC"/>
  <circle cx="196" cy="248" r="176" fill="#D7C8EA" fill-opacity="0.75"/>
  <circle cx="754" cy="926" r="216" fill="#C8DED1" fill-opacity="0.72"/>
  <path d="M480 126L527.821 270.179H679.511L556.845 359.143L604.667 503.321L480 414.357L355.333 503.321L403.155 359.143L280.489 270.179H432.179L480 126Z" stroke="#A587C3" stroke-opacity="0.24" stroke-width="2"/>
  <circle cx="480" cy="378" r="132" fill="url(#paint0_linear_414_4)"/>
  <path d="M260 832C260 651.964 362.964 549 543 549H550C730.036 549 833 651.964 833 832V936H260V832Z" fill="url(#paint1_linear_414_4)"/>
  <path d="M354 846C354 730.609 447.609 637 563 637H615C730.391 637 824 730.609 824 846V936H354V846Z" fill="#F2E8FA" fill-opacity="0.4"/>
  <path d="M478 535C596.189 535 692 439.189 692 321C692 202.811 596.189 107 478 107C359.811 107 264 202.811 264 321C264 439.189 359.811 535 478 535Z" stroke="#8D74A6" stroke-opacity="0.18" stroke-width="2"/>
  <path d="M482 506C578.65 506 657 427.65 657 331C657 234.35 578.65 156 482 156C385.35 156 307 234.35 307 331C307 427.65 385.35 506 482 506Z" fill="#FBF7F2" fill-opacity="0.85"/>
  <path d="M481 559C394.432 559 324.25 629.182 324.25 715.75V936H637.75V715.75C637.75 629.182 567.568 559 481 559Z" fill="#FBF7F2" fill-opacity="0.85"/>
  <path d="M351 266C384.514 216.155 441.286 183 505.8 183C570.314 183 627.086 216.155 660.6 266" stroke="#A88CC3" stroke-opacity="0.2" stroke-width="2"/>
  <path d="M180 668C288.768 668 376.939 579.829 376.939 471.061C376.939 362.293 288.768 274.122 180 274.122" stroke="#8A719F" stroke-opacity="0.14" stroke-width="2"/>
  <path d="M790 664C681.232 664 593.061 575.829 593.061 467.061C593.061 358.293 681.232 270.122 790 270.122" stroke="#8A719F" stroke-opacity="0.14" stroke-width="2"/>
  <path d="M478 694L514.506 768.972L597.282 781.097L537.641 839.764L551.988 922.597L478 883.222L404.012 922.597L418.359 839.764L358.718 781.097L441.494 768.972L478 694Z" fill="#F7F2EC"/>
  <rect x="110" y="960" width="740" height="118" rx="59" fill="#FFFDFC" fill-opacity="0.74" stroke="#D9CBBC"/>
  <text x="480" y="1010" text-anchor="middle" fill="#5B544D" font-family="Georgia, serif" font-size="32" letter-spacing="3">FOUNDER PORTRAIT PLACEHOLDER</text>
  <text x="480" y="1046" text-anchor="middle" fill="#83776C" font-family="Arial, sans-serif" font-size="18" letter-spacing="2">A second image slot for your story page</text>
  <defs>
    <linearGradient id="paint0_linear_414_4" x1="480" y1="246" x2="480" y2="510" gradientUnits="userSpaceOnUse">
      <stop stop-color="#FBF6F1"/>
      <stop offset="1" stop-color="#E4D8F1"/>
    </linearGradient>
    <linearGradient id="paint1_linear_414_4" x1="546.5" y1="549" x2="546.5" y2="936" gradientUnits="userSpaceOnUse">
      <stop stop-color="#BAA3D3"/>
      <stop offset="1" stop-color="#8C719F"/>
    </linearGradient>
  </defs>
</svg>
