<svg width="256" height="256" viewBox="0 0 256 256" fill="none" xmlns="http://www.w3.org/2000/svg">
  <defs>
    <linearGradient id="strokeA" x1="44" y1="36" x2="208" y2="220" gradientUnits="userSpaceOnUse">
      <stop offset="0" stop-color="#A9F7FF" />
      <stop offset="0.45" stop-color="#67E7FF" />
      <stop offset="1" stop-color="#22C7FF" />
    </linearGradient>
    <linearGradient id="strokeB" x1="128" y1="28" x2="128" y2="228" gradientUnits="userSpaceOnUse">
      <stop offset="0" stop-color="#C9FFFF" />
      <stop offset="1" stop-color="#20BFFF" />
    </linearGradient>
    <linearGradient id="fillBody" x1="128" y1="34" x2="128" y2="214" gradientUnits="userSpaceOnUse">
      <stop offset="0" stop-color="#101A48" />
      <stop offset="0.55" stop-color="#0B1435" />
      <stop offset="1" stop-color="#050B1A" />
    </linearGradient>
    <radialGradient id="coreGlow" cx="0" cy="0" r="1" gradientUnits="userSpaceOnUse" gradientTransform="translate(128 126) rotate(90) scale(84)">
      <stop offset="0" stop-color="#49E8FF" stop-opacity="0.32" />
      <stop offset="0.5" stop-color="#3DDBFF" stop-opacity="0.18" />
      <stop offset="1" stop-color="#1CC6FF" stop-opacity="0" />
    </radialGradient>
    <radialGradient id="outerGlow" cx="0" cy="0" r="1" gradientUnits="userSpaceOnUse" gradientTransform="translate(128 126) rotate(90) scale(112)">
      <stop offset="0.66" stop-color="#2ED9FF" stop-opacity="0" />
      <stop offset="1" stop-color="#2ED9FF" stop-opacity="0.15" />
    </radialGradient>
    <filter id="softGlow" x="0" y="0" width="256" height="256" filterUnits="userSpaceOnUse" color-interpolation-filters="sRGB">
      <feGaussianBlur stdDeviation="6" result="blur" />
      <feMerge>
        <feMergeNode in="blur" />
        <feMergeNode in="SourceGraphic" />
      </feMerge>
    </filter>
    <filter id="tinyGlow" x="0" y="0" width="256" height="256" filterUnits="userSpaceOnUse" color-interpolation-filters="sRGB">
      <feGaussianBlur stdDeviation="1.2" result="blur" />
      <feMerge>
        <feMergeNode in="blur" />
        <feMergeNode in="SourceGraphic" />
      </feMerge>
    </filter>
  </defs>

  <rect width="256" height="256" rx="34" fill="#030716" />
  <rect width="256" height="256" rx="34" fill="url(#outerGlow)" />
  <circle cx="128" cy="126" r="74" fill="url(#coreGlow)" />

  <g filter="url(#tinyGlow)" fill="#55E8FF" opacity="0.95">
    <circle cx="53" cy="92" r="1.7" />
    <circle cx="60" cy="85" r="1.4" />
    <circle cx="66" cy="78" r="1.3" />
    <circle cx="73" cy="70" r="1.8" />
    <circle cx="80" cy="64" r="1.2" />
    <circle cx="89" cy="58" r="1.6" />
    <circle cx="99" cy="52" r="1.5" />
    <circle cx="110" cy="48" r="1.3" />
    <circle cx="121" cy="45" r="1.8" />
    <circle cx="132" cy="44" r="1.2" />
    <circle cx="143" cy="46" r="1.3" />
    <circle cx="154" cy="49" r="1.6" />
    <circle cx="165" cy="54" r="1.4" />
    <circle cx="175" cy="60" r="1.7" />
    <circle cx="184" cy="66" r="1.2" />
    <circle cx="192" cy="74" r="1.7" />
    <circle cx="199" cy="82" r="1.5" />
    <circle cx="204" cy="91" r="1.6" />
    <circle cx="208" cy="101" r="1.4" />
    <circle cx="211" cy="112" r="1.2" />
    <circle cx="212" cy="123" r="1.5" />
    <circle cx="210" cy="134" r="1.7" />
    <circle cx="206" cy="145" r="1.2" />
    <circle cx="201" cy="155" r="1.4" />
    <circle cx="194" cy="164" r="1.7" />
    <circle cx="186" cy="172" r="1.2" />
    <circle cx="177" cy="179" r="1.6" />
    <circle cx="167" cy="185" r="1.3" />
    <circle cx="156" cy="189" r="1.5" />
    <circle cx="145" cy="192" r="1.2" />
    <circle cx="134" cy="194" r="1.7" />
    <circle cx="122" cy="194" r="1.4" />
    <circle cx="111" cy="192" r="1.3" />
    <circle cx="100" cy="189" r="1.6" />
    <circle cx="89" cy="184" r="1.5" />
    <circle cx="79" cy="178" r="1.2" />
    <circle cx="70" cy="171" r="1.7" />
    <circle cx="62" cy="163" r="1.4" />
    <circle cx="55" cy="154" r="1.3" />
    <circle cx="50" cy="144" r="1.6" />
    <circle cx="46" cy="133" r="1.4" />
    <circle cx="44" cy="121" r="1.3" />
    <circle cx="45" cy="109" r="1.8" />
    <circle cx="48" cy="99" r="1.4" />
    <circle cx="70" cy="96" r="1.2" />
    <circle cx="80" cy="89" r="1.1" />
    <circle cx="92" cy="82" r="1.2" />
    <circle cx="105" cy="75" r="1.2" />
    <circle cx="118" cy="70" r="1.1" />
    <circle cx="131" cy="69" r="1.2" />
    <circle cx="144" cy="71" r="1.3" />
    <circle cx="157" cy="75" r="1.1" />
    <circle cx="169" cy="82" r="1.2" />
    <circle cx="180" cy="90" r="1.2" />
    <circle cx="188" cy="100" r="1.1" />
    <circle cx="194" cy="111" r="1.2" />
    <circle cx="196" cy="124" r="1.3" />
    <circle cx="194" cy="137" r="1.1" />
    <circle cx="188" cy="149" r="1.2" />
    <circle cx="180" cy="160" r="1.2" />
    <circle cx="169" cy="169" r="1.1" />
    <circle cx="157" cy="176" r="1.2" />
    <circle cx="144" cy="181" r="1.2" />
    <circle cx="131" cy="183" r="1.1" />
    <circle cx="118" cy="181" r="1.2" />
    <circle cx="105" cy="176" r="1.2" />
    <circle cx="92" cy="169" r="1.1" />
    <circle cx="81" cy="160" r="1.2" />
    <circle cx="72" cy="150" r="1.1" />
    <circle cx="66" cy="139" r="1.2" />
    <circle cx="63" cy="126" r="1.2" />
  </g>

  <g filter="url(#softGlow)" stroke="url(#strokeA)" stroke-linecap="round" stroke-linejoin="round">
    <path d="M128 34C138 46 143 61 143 76C143 90 138 101 128 112C118 101 113 90 113 76C113 61 118 46 128 34Z" stroke-width="3.2" />
    <path d="M87 54C101 60 112 71 118 85C123 97 123 109 118 120C104 114 94 104 89 92C83 79 82 66 87 54Z" stroke-width="3" />
    <path d="M169 54C155 60 144 71 138 85C133 97 133 109 138 120C152 114 162 104 167 92C173 79 174 66 169 54Z" stroke-width="3" />
    <path d="M59 90C75 89 90 94 102 104C112 113 118 125 120 140C104 141 89 137 77 127C66 118 60 106 59 90Z" stroke-width="3" />
    <path d="M197 90C181 89 166 94 154 104C144 113 138 125 136 140C152 141 167 137 179 127C190 118 196 106 197 90Z" stroke-width="3" />
    <path d="M39 132C57 125 75 124 91 131C104 136 114 146 120 160C102 166 84 166 68 159C54 153 44 144 39 132Z" stroke-width="3.1" />
    <path d="M217 132C199 125 181 124 165 131C152 136 142 146 136 160C154 166 172 166 188 159C202 153 212 144 217 132Z" stroke-width="3.1" />
  </g>

  <g stroke="url(#strokeB)" stroke-linecap="round" opacity="0.82">
    <path d="M128 46L128 104" stroke-width="1.8" />
    <path d="M128 56C133 61 136 68 136 76C136 83 133 89 128 95" stroke-width="1.5" />
    <path d="M128 56C123 61 120 68 120 76C120 83 123 89 128 95" stroke-width="1.5" />
    <path d="M93 64C103 72 111 83 115 96" stroke-width="1.5" />
    <path d="M163 64C153 72 145 83 141 96" stroke-width="1.5" />
    <path d="M73 99C87 103 99 111 108 122" stroke-width="1.5" />
    <path d="M183 99C169 103 157 111 148 122" stroke-width="1.5" />
    <path d="M50 138C67 138 82 143 95 153" stroke-width="1.5" />
    <path d="M206 138C189 138 174 143 161 153" stroke-width="1.5" />
    <path d="M70 148C80 148 91 152 101 158" stroke-width="1.3" />
    <path d="M186 148C176 148 165 152 155 158" stroke-width="1.3" />
    <path d="M109 140C116 145 122 151 127 160" stroke-width="1.5" />
    <path d="M147 140C140 145 134 151 129 160" stroke-width="1.5" />
    <path d="M85 138C95 137 104 140 112 146" stroke-width="1.2" />
    <path d="M171 138C161 137 152 140 144 146" stroke-width="1.2" />
  </g>

  <g fill="url(#fillBody)" stroke="url(#strokeA)" stroke-linejoin="round">
    <path d="M110 81C114 76 120 73 128 72C136 73 142 76 146 81C150 87 151 95 149 104L142 118L151 145C144 149 136 151 128 151C120 151 112 149 105 145L114 118L107 104C105 95 106 87 110 81Z" stroke-width="3" />
    <path d="M128 68C122 65 118 59 118 51C118 44 122 39 128 35C134 39 138 44 138 51C138 59 134 65 128 68Z" stroke-width="3" />
    <path d="M84 164C92 150 106 142 128 140C150 142 164 150 172 164C176 171 177 180 174 190C161 190 149 188 137 182C133 180 130 177 128 174C126 177 123 180 119 182C107 188 95 190 82 190C79 180 80 171 84 164Z" stroke-width="3.2" />
    <path d="M95 147C103 151 112 155 128 156C144 155 153 151 161 147" stroke-width="2.2" />
    <path d="M98 176C108 176 118 173 128 168C138 173 148 176 158 176" stroke-width="2.1" />
  </g>

  <g stroke="url(#strokeB)" stroke-linecap="round" opacity="0.78">
    <path d="M116 86C120 83 124 82 128 82C132 82 136 83 140 86" stroke-width="1.5" />
    <path d="M121 96C123 94 125 93 128 93C131 93 133 94 135 96" stroke-width="1.3" />
    <path d="M122 109C124 108 126 108 128 108C130 108 132 108 134 109" stroke-width="1.2" />
    <path d="M112 118C117 122 122 124 128 124C134 124 139 122 144 118" stroke-width="1.4" />
    <path d="M110 156C116 160 122 162 128 162C134 162 140 160 146 156" stroke-width="1.4" />
    <path d="M91 168C103 165 113 166 121 171" stroke-width="1.3" />
    <path d="M165 168C153 165 143 166 135 171" stroke-width="1.3" />
  </g>

  <g filter="url(#tinyGlow)" fill="#7BF2FF" opacity="0.88">
    <circle cx="87" cy="114" r="1.4" />
    <circle cx="96" cy="108" r="1.1" />
    <circle cx="107" cy="102" r="1.2" />
    <circle cx="149" cy="102" r="1.2" />
    <circle cx="160" cy="108" r="1.1" />
    <circle cx="169" cy="114" r="1.4" />
    <circle cx="73" cy="126" r="1.1" />
    <circle cx="82" cy="135" r="1.2" />
    <circle cx="92" cy="143" r="1.1" />
    <circle cx="163" cy="143" r="1.1" />
    <circle cx="173" cy="135" r="1.2" />
    <circle cx="182" cy="126" r="1.1" />
    <circle cx="101" cy="197" r="1.4" />
    <circle cx="112" cy="202" r="1.1" />
    <circle cx="128" cy="206" r="1.6" />
    <circle cx="144" cy="202" r="1.1" />
    <circle cx="155" cy="197" r="1.4" />
  </g>
</svg>
